<?xml version="1.0" standalone="no"?><!DOCTYPE svg PUBLIC "-//W3C//DTD SVG 1.1//EN" "http://www.w3.org/Graphics/SVG/1.1/DTD/svg11.dtd"><svg width="218.359375" height="200" viewBox="0 0 218.359375 200" version="1.1" xmlns="http://www.w3.org/2000/svg" xmlns:xlink="http://www.w3.org/1999/xlink"><defs><style type="text/css"><![CDATA[
@font-face {
  font-family: "ifont";
  src: url("//at.alicdn.com/t/font_1442373896_4754455.eot?#iefix") format("embedded-opentype"), url("//at.alicdn.com/t/font_1442373896_4754455.woff") format("woff"), url("//at.alicdn.com/t/font_1442373896_4754455.ttf") format("truetype"), url("//at.alicdn.com/t/font_1442373896_4754455.svg#ifont") format("svg");
}

]]></style></defs><g class="transform-group"><g transform="scale(0.1953125, 0.1953125)"><path d="M1113.769529 92.306694c2.029732-6.642761 3.459771-13.608433 3.459771-20.943148C1117.2293 31.968285 1085.583926 0 1046.603838 0c-8.21119 0-16.007208 1.70682-23.341923 4.290116-310.549058 0.092261-621.098117 0.138391-931.693306 0l-1.383908 1.383908c-4.428507-0.876475-9.041535-1.383908-13.746824-1.383908-38.195874 0-69.195423 30.99955-69.195423 69.195423 0 4.705289 0.507433 9.318317 1.383908 13.746824L7.242454 88.616272C7.380845 384.080728 7.380845 626.310839 7.380845 919.607172 2.813947 928.833228 0 939.028021 0 950.007028c0 38.195874 31.322461 69.195423 69.933508 69.195423 5.028201 0 9.918011-0.599694 14.66943-1.56843 311.010361 0.04613 622.020723 0.04613 933.031084 0.04613 8.672493 3.736553 18.175331 5.858546 28.231733 5.858546 39.395261 0 71.363546-31.968285 71.363546-71.363546 0-7.473106-1.476169-14.484909-3.598162-21.26606C1113.631138 633.645554 1113.631138 389.847013 1113.769529 92.306694zM508.032796 734.624741c0.138391 5.212722-1.383908 6.227588-6.135328 6.227588-101.209839-0.138391-202.419677-0.184521-303.675646 0.04613-5.766285 0-6.50437-1.937472-6.50437-7.242454 0.138391-89.677268 0.092261-179.354536 0.092261-269.077935 0-89.492747 0.04613-178.939364-0.138391-268.432111 0-5.904676 1.245518-7.334715 6.965673-7.334715 95.581944 0.230651 191.163889 0.230651 286.745833 0 5.766285 0 7.150194 1.476169 6.965673 7.380845-0.415173 15.776556-24.725831 19.005676-24.172268 32.152807 0.230651 5.766285-1.799081 6.59663-7.334715 6.5505C394.367781 234.757005 319.452203 235.218308 244.905667 234.987657c-5.535634 0-7.057933 1.199387-7.011803 7.426975 0.276782 56.509595 0.230651 113.019191 0 169.574917 0 6.181458 1.476169 7.519236 7.057933 7.519236 67.996036-0.230651 155.551311 2.721687 220.82566 2.721687 8.349581 0 8.349581 0 8.349581 8.995405 0 15.130732-0.230651 30.261465 0.138391 45.392197 0.138391 5.212722-1.153257 6.735021-6.319849 6.688891-65.874043-0.184521-131.794216-0.04613-197.668258-0.276782-5.812416-0.04613-6.965673 1.56843-6.919542 7.380845 0.230651 60.753581 0.230651 121.553293-0.04613 182.306874-0.04613 6.319849 1.845211 7.150194 7.242454 7.150194 76.94531-0.184521 153.890621-0.04613 230.835931-0.276782 5.304982 0 6.919542 1.060996 6.781151 6.873412C507.617623 702.518065 507.663753 718.571403 508.032796 734.624741zM924.681503 741.267502c-25.048743 0.092261-50.143617-0.04613-75.19236 0.184521-4.243986 0.04613-6.735021-1.430039-9.133796-5.304982-30.399856-49.174881-60.938103-98.257501-91.430219-147.386251-1.199387-1.891342-2.398775-3.736553-4.013335-6.227588-1.70682 2.629426-3.136859 4.751419-4.520768 6.965673-30.399856 48.898099-60.799712 97.796198-91.107307 146.740427-2.260384 3.644292-4.474637 5.258852-8.580232 5.166592-24.633571-0.230651-49.313271-0.138391-73.946842-0.138391-1.61456 0-3.22912 0-5.950806 0 43.777638-67.304081 86.63267-133.316515 129.810614-199.098297 4.013335-6.089197 3.921074-9.87188 0.138391-16.145599-38.518785-63.383007-76.668529-127.088927-114.910532-190.702586-1.383908-2.260384-2.675556-4.566898-4.659158-7.980539l6.273718 0c24.033877 0 48.067754 0.092261 72.101631-0.092261 3.828813-0.04613 5.904676 1.383908 7.888278 4.98207 28.877557 51.665916 57.893504 103.239571 86.863321 154.905487 2.813947-0.645824 3.22912-3.598162 4.336247-5.581764 27.309127-49.451662 54.572124-98.903325 81.650599-148.539508 2.398775-4.382377 4.84368-5.858546 9.364447-5.812416 25.463916 0.276782 50.881701 0.138391 76.484008 0.138391-0.092261 2.952338-1.799081 4.520768-2.906208 6.319849-39.026219 65.043698-78.006307 130.041265-117.217047 194.900441-2.675556 4.474637-2.629426 7.011803 0.230651 11.301919 44.654113 66.612127 89.077575 133.362645 133.639427 200.159294C928.371925 742.420759 926.342193 741.221371 924.681503 741.267502z" fill="#ecf0f1"></path></g></g></svg>