<?xml version="1.0" standalone="no"?><!DOCTYPE svg PUBLIC "-//W3C//DTD SVG 1.1//EN" "http://www.w3.org/Graphics/SVG/1.1/DTD/svg11.dtd"><svg width="200" height="200" viewBox="0 0 200 200" version="1.1" xmlns="http://www.w3.org/2000/svg" xmlns:xlink="http://www.w3.org/1999/xlink"><defs><style type="text/css"><![CDATA[

]]></style></defs><g class="transform-group"><g transform="scale(0.1953125, 0.1953125)"><path d="M1009.982001 828.935803l-301.535459-301.535459c-18.677013-18.677013-49.211472-18.677013-67.888484 0l-22.629495 22.629495-183.984961-183.984961 302.047438-302.047438-319.987201 0-142.043598 142.043598-14.069197-14.048718-67.888484 0 0 67.888484 14.048718 14.048718-206.041038 206.061518 160.00384 160.00384 206.041038-206.041038 183.984961 183.984961-22.629495 22.629495c-18.677013 18.677013-18.677013 49.211472 0 67.888484l301.535459 301.535459c18.677013 18.677013 49.211472 18.677013 67.888484 0l113.126995-113.126995c18.677013-18.656534 18.677013-49.211472 0-67.888484z" fill="#ecf0f1"></path></g></g></svg>